<svg width="34" height="34" viewBox="0 0 34 34" fill="none" xmlns="http://www.w3.org/2000/svg">
<path d="M19.5925 26.9167C19.3809 26.9174 19.1718 26.8707 18.9805 26.78C18.7893 26.6893 18.6209 26.5569 18.4875 26.3925L11.645 17.8925C11.4367 17.639 11.3228 17.3211 11.3228 16.9929C11.3228 16.6648 11.4367 16.3468 11.645 16.0934L18.7284 7.59336C18.9688 7.30405 19.3144 7.12212 19.689 7.08758C20.0636 7.05304 20.4366 7.16873 20.7259 7.40919C21.0152 7.64966 21.1971 7.9952 21.2316 8.3698C21.2662 8.7444 21.1505 9.11739 20.91 9.40669L14.5775 17L20.6975 24.5934C20.8708 24.8013 20.9808 25.0545 21.0146 25.323C21.0485 25.5916 21.0047 25.8642 20.8884 26.1086C20.7722 26.353 20.5883 26.559 20.3587 26.7022C20.129 26.8454 19.8632 26.9199 19.5925 26.9167Z" fill="white"/>
</svg>
